<svg xmlns="http://www.w3.org/2000/svg" width="512" height="512" viewBox="0 0 512 512" version="1.1">
	<path d="M 234.500 3.684 C 206.841 6.085, 174.832 15.177, 147.443 28.410 C 120.445 41.454, 98.409 56.788, 77.629 76.988 C 45.065 108.646, 25.737 140.889, 11.387 187.500 C -0.965 227.621, -2.786 270.083, 6.114 310.500 C 14.370 347.998, 30.903 383.114, 54.844 414 C 64.490 426.446, 85.815 447.260, 99 457.101 C 135.596 484.415, 173.969 500.197, 222 507.691 C 237.977 510.183, 273.827 510.169, 290 507.663 C 350.049 498.358, 399.287 473.947, 439.500 433.543 C 473.784 399.096, 497.554 352.442, 507.539 300 C 510.075 286.679, 510.679 244.217, 508.577 227 C 501.796 171.444, 478.701 121.702, 442 83.603 C 398.956 38.920, 338.653 9.490, 279 4.055 C 268.332 3.083, 243.778 2.878, 234.500 3.684 M 234.500 22.038 C 191.362 26.429, 142.498 45.739, 107.924 72.058 C 97.343 80.113, 78.644 98.168, 70.702 108 C 47.577 136.628, 29.242 176.612, 22.097 214 C 18.330 233.708, 17.655 240.505, 17.578 259.500 C 17.470 286.092, 20.866 306.714, 29.485 331.817 C 42.493 369.703, 57.693 395.249, 82.435 420.808 C 120.232 459.853, 169.380 484.493, 225.500 492.531 C 238.878 494.447, 268.733 494.412, 283.699 492.463 C 354.340 483.261, 416.606 445.873, 453.904 390.260 C 482.374 347.812, 496.849 293.389, 493.071 243 C 487.013 162.170, 450.410 99.470, 385.960 59.517 C 356.942 41.528, 316.684 26.979, 285 23.031 C 272.813 21.512, 245.033 20.966, 234.500 22.038 M 164.392 57.421 C 163.393 60.025, 164.835 60.802, 173.003 62.058 C 189.105 64.536, 207.576 72.304, 219.274 81.518 C 225.830 86.683, 236.046 99.139, 240.500 107.398 L 243.500 112.962 240.182 118.731 C 231.440 133.933, 226.891 145.884, 224.400 160.186 C 221.173 178.713, 224.989 193.868, 231.294 187.564 C 232.328 186.529, 232.880 182.542, 233.265 173.314 C 233.603 165.219, 234.544 157.701, 235.821 152.900 C 238.307 143.550, 243.480 130.315, 245.893 127.131 L 247.688 124.762 249.346 128.908 C 252.525 136.852, 253.905 151.142, 254.938 186.814 C 255.501 206.237, 256.221 222.549, 256.540 223.064 C 256.858 223.579, 257.475 224, 257.910 224 C 259.190 224, 280.443 193.087, 283.937 186.144 C 295.177 163.809, 292.656 136.182, 276.887 108.887 C 271.998 100.426, 271.214 98.444, 272.251 97.179 C 275.892 92.739, 297.748 80.017, 310.303 75.030 C 315.789 72.851, 316.090 72.555, 315.803 69.612 C 315.525 66.752, 315.214 66.508, 311.964 66.595 C 306.845 66.733, 289.066 74.684, 275.576 82.869 L 263.912 89.946 255.416 83.464 C 235.218 68.053, 205.021 57.610, 176.775 56.266 C 166.314 55.768, 164.978 55.893, 164.392 57.421 M 238.978 88.136 C 257.636 110.358, 267.977 139.842, 268.015 170.926 C 268.031 183.675, 268.577 186.497, 270.769 185.143 C 272.469 184.092, 276.636 171.756, 278.067 163.534 C 282.328 139.065, 267.552 106.302, 243.775 87.501 C 239.253 83.926, 234.976 81, 234.270 81 C 233.564 81, 235.682 84.211, 238.978 88.136 M 132 159.522 C 112.318 163.561, 97.062 172.809, 84.580 188.270 C 62.231 215.953, 57.786 255.242, 73.354 287.500 C 80.554 302.418, 90.722 313.706, 105.585 323.282 C 114.918 329.294, 118.163 330.869, 137.892 338.956 C 167.335 351.024, 176.311 356.261, 193.291 371.274 C 216.880 392.131, 227.977 419.248, 227.994 456.076 C 228 467.839, 228.145 468.784, 230.250 470.701 C 231.487 471.828, 233.519 473.276, 234.765 473.918 C 236.642 474.886, 237.137 474.806, 237.658 473.449 C 238.814 470.437, 237.138 418.820, 235.501 407.003 C 232.120 382.605, 226.034 362.504, 217.496 347.539 C 210.547 335.359, 203.107 326.253, 183.864 306.371 C 164.482 286.347, 156.931 276.167, 151.401 262.603 C 141.070 237.263, 145.888 216.708, 164.072 208.548 C 189.639 197.074, 221.103 214.113, 248.926 254.500 C 252.336 259.450, 255.629 263.500, 256.243 263.500 C 256.858 263.500, 261.201 258.100, 265.895 251.500 C 280.335 231.194, 297.774 215.609, 312.957 209.439 C 330.505 202.309, 348.812 205.163, 358.878 216.599 C 367.930 226.883, 368.543 245.217, 360.447 263.524 C 354.246 277.545, 347.089 286.672, 322 312.551 C 312.375 322.479, 302.136 334.030, 299.246 338.220 C 284.766 359.216, 277.609 383.372, 275.068 419.830 C 273.914 436.396, 273.620 469.847, 274.607 472.418 C 275.512 474.776, 277.534 474.348, 281.359 470.989 L 284.788 467.979 285.254 448.739 C 285.801 426.112, 287.427 418.328, 294.913 402.500 C 301.891 387.745, 316.933 370.394, 333 358.566 C 341.555 352.269, 350.872 347.662, 371.500 339.532 C 392.756 331.154, 403.801 325.386, 413.945 317.364 C 438.569 297.893, 450.686 269.010, 447.116 238.296 C 442.462 198.257, 417.715 168.352, 382.209 159.860 C 371.057 157.193, 353.525 157.676, 342 160.968 C 315.175 168.631, 296.265 184.937, 269.335 223.625 C 264.694 230.293, 259.799 236.780, 258.458 238.039 C 256.094 240.260, 255.960 240.274, 254.015 238.513 C 252.911 237.515, 249.351 232.378, 246.104 227.099 C 217.592 180.750, 184.781 157.720, 147.792 158.094 C 142.681 158.146, 135.575 158.788, 132 159.522 M 132 179.281 C 120.533 182.792, 115.360 185.814, 106.568 194.137 C 78.658 220.556, 74.559 259.601, 96.615 288.942 C 102.926 297.337, 117.984 310.350, 119.561 308.772 C 119.850 308.483, 117.600 304.942, 114.561 300.902 C 107.861 291.995, 100.832 278.510, 98.091 269.304 C 92 248.839, 94.348 225.750, 104.523 206.068 C 108.989 197.431, 116.824 188, 119.535 188 C 121.494 188, 121.444 188.263, 118.130 195.357 C 109.820 213.147, 109.107 234.476, 116.120 255.485 C 123.137 276.506, 132.566 288.844, 170.008 326 C 185.804 341.675, 200.780 356.971, 203.289 359.991 C 205.798 363.011, 208.103 365.230, 208.411 364.922 C 209.244 364.090, 200.628 350.511, 194.184 342.500 C 191.087 338.650, 179.316 326.016, 168.027 314.424 C 140.324 285.980, 130.729 272.087, 126.016 253.590 C 123.565 243.973, 123.352 229.906, 125.531 221.542 C 130.066 204.130, 143.609 190.525, 159.799 187.116 C 172.608 184.419, 183.265 186.323, 198.500 194.030 C 206.419 198.036, 207.980 198.568, 206 196.586 C 201.455 192.036, 187.378 184.379, 177.363 181.009 C 168.426 178.003, 166.185 177.658, 153.500 177.338 C 141.119 177.025, 138.632 177.250, 132 179.281 M 342.500 178.927 C 333.209 181.289, 326.487 184.089, 317.091 189.508 C 305.099 196.425, 303.491 199.256, 314.761 193.609 C 325.910 188.023, 333.184 186, 342.121 186 C 354.931 186, 366.108 191.029, 375.253 200.907 C 388.759 215.495, 392.369 235.902, 385.211 257.203 C 379.175 275.167, 369.063 288.785, 338.954 319.500 C 326.554 332.150, 314.346 345.425, 311.826 349 C 307.105 355.696, 302.574 363.907, 303.235 364.568 C 303.441 364.774, 306.450 361.564, 309.923 357.436 C 313.395 353.307, 324.170 342.423, 333.868 333.249 C 370.548 298.551, 382.074 285.029, 391.466 265.682 C 398.269 251.668, 399.972 245.351, 400.690 231.448 C 401.415 217.433, 399.407 206.670, 393.990 195.526 C 391.858 191.141, 390.275 187.392, 390.471 187.195 C 391.311 186.356, 395.085 189.313, 399.903 194.584 C 406.224 201.500, 413.036 215.264, 415.917 226.940 C 418.493 237.377, 418.716 253.395, 416.421 262.936 C 414.268 271.882, 405.368 289.724, 397.997 299.874 C 394.652 304.480, 392.095 308.428, 392.315 308.648 C 392.997 309.331, 404.248 300.599, 409.357 295.422 C 419.093 285.556, 425.728 272.977, 428.554 259.028 C 432.983 237.171, 424.926 213.839, 406.628 195.537 C 397.351 186.258, 389.990 181.939, 378.404 178.975 C 368.451 176.430, 352.407 176.408, 342.500 178.927 M 196.643 390.053 C 187.498 392.714, 185.551 404.078, 193.143 410.467 C 195.490 412.442, 197.260 413, 201.177 413 C 205.556 413, 206.636 412.564, 209.600 409.600 C 213.460 405.740, 214.109 401.044, 211.483 395.967 C 209.077 391.315, 201.999 388.494, 196.643 390.053 M 306.270 390.471 C 302.151 392.276, 299.009 397.414, 299.004 402.350 C 299.001 405.398, 299.708 406.908, 302.400 409.600 C 305.274 412.474, 306.507 413, 310.365 413 C 319.265 413, 325.332 404.113, 321.672 396.438 C 318.878 390.580, 312.052 387.935, 306.270 390.471 M 249.200 424.200 C 247.259 426.141, 247.521 482.174, 249.489 485.979 C 251.519 489.904, 254.308 490.591, 258.265 488.141 C 264.825 484.079, 265 483.172, 265 453.167 C 265 429.933, 264.780 425.922, 263.429 424.571 C 261.522 422.665, 251.009 422.391, 249.200 424.200" stroke="none" fill="black" fill-rule="evenodd"/>
</svg>